HIERARCHY
ROOT Hips
{
	OFFSET 0.000000 88.474243 0.000000
	CHANNELS 6 Xposition Yposition Zposition Zrotation Yrotation Xrotation 
	JOINT Hips_Spine
	{
		OFFSET 0.000000 0.000000 0.000000
		CHANNELS 3 Zrotation Yrotation Xrotation
		JOINT Spine
		{
			OFFSET 0.005100 8.711998 -0.691000
			CHANNELS 3 Zrotation Yrotation Xrotation
			JOINT Spine1
			{
				OFFSET -0.009200 8.660301 -1.275000
				CHANNELS 3 Zrotation Yrotation Xrotation
				JOINT Spine2
				{
					OFFSET 0.006300 9.852501 -1.857000
					CHANNELS 3 Zrotation Yrotation Xrotation
					JOINT Spine2_Neck
					{
						OFFSET 0.000000 0.000000 0.000000
						CHANNELS 3 Zrotation Yrotation Xrotation
						JOINT Neck
						{
							OFFSET 0.016300 11.420799 -0.263300
							CHANNELS 3 Zrotation Yrotation Xrotation
							End Site #name: Head
							{
								OFFSET -0.019200 9.262405 2.362500
							}
						}
					}
					JOINT Spine2_LeftShoulder
					{
						OFFSET 0.000000 0.000000 0.000000
						CHANNELS 3 Zrotation Yrotation Xrotation
						JOINT LeftShoulder
						{
							OFFSET 5.616900 6.732201 -0.345700
							CHANNELS 3 Zrotation Yrotation Xrotation
							JOINT LeftArm
							{
								OFFSET 10.664888 -0.183372 -2.440700
								CHANNELS 3 Zrotation Yrotation Xrotation
								JOINT LeftForeArm
								{
									OFFSET 27.459126 0.000000 0.000000
									CHANNELS 3 Zrotation Yrotation Xrotation
									End Site #name: LeftHand
									{
										OFFSET 21.306858 0.000000 0.000000
									}
								}
							}
						}
					}
					JOINT Spine2_RightShoulder
					{
						OFFSET 0.000000 0.000000 0.000000
						CHANNELS 3 Zrotation Yrotation Xrotation
						JOINT RightShoulder
						{
							OFFSET -5.580300 6.737503 -0.344400
							CHANNELS 3 Zrotation Yrotation Xrotation
							JOINT RightArm
							{
								OFFSET -10.679335 -0.188484 -2.383900
								CHANNELS 3 Zrotation Yrotation Xrotation
								JOINT RightForeArm
								{
									OFFSET -27.503529 0.000000 0.000000
									CHANNELS 3 Zrotation Yrotation Xrotation
									End Site #name: RightHand
									{
										OFFSET -21.306808 0.000000 0.000000
									}
								}
							}
						}
					}
				}
			}
		}
	}
	JOINT Hips_LeftUpLeg
	{
		OFFSET 0.000000 0.000000 0.000000
		CHANNELS 3 Zrotation Yrotation Xrotation
		JOINT LeftUpLeg
		{
			OFFSET 6.857700 -6.739601 0.312100
			CHANNELS 3 Zrotation Yrotation Xrotation
			JOINT LeftLeg
			{
				OFFSET -0.367590 -34.731552 -4.572400
				CHANNELS 3 Zrotation Yrotation Xrotation
				End Site #name: LeftFoot
				{
					OFFSET 0.367590 -34.656704 -6.067400
				}
			}
		}
	}
	JOINT Hips_RightUpLeg
	{
		OFFSET 0.000000 0.000000 0.000000
		CHANNELS 3 Zrotation Yrotation Xrotation
		JOINT RightUpLeg
		{
			OFFSET -6.876100 -6.733299 0.301000
			CHANNELS 3 Zrotation Yrotation Xrotation
			JOINT RightLeg
			{
				OFFSET 0.347353 -34.795158 -4.515900
				CHANNELS 3 Zrotation Yrotation Xrotation
				End Site #name: RightFoot
				{
					OFFSET -0.347353 -34.589367 -6.070300
				}
			}
		}
	}
}
MOTION
Frames: 15
Frame Time: 0.041667
-0.391310 0.160096 -1.336882 -3.732213 2.299926 -1.414954 -0.000000 -0.000000 0.000000 3.564106 -0.341795 21.680468 0.235326 0.455612 3.280784 0.000000 0.000000 0.000000 0.492758 0.399784 2.131528 1.403952 -0.554851 9.463499 0.550046 0.442908 2.684005 -5.538745 -0.136638 -0.878893 -66.581592 -4.713237 8.401254 0.092029 -35.179715 0.753577 0.259704 0.580558 3.066061 3.864642 -7.445954 0.490411 74.513216 11.962707 8.716170 1.923956 85.766681 2.052793 -0.000000 0.000000 0.000000 7.156123 9.204508 -78.439890 6.032695 -4.051522 68.969236 0.000000 0.000000 0.000000 -5.713703 -8.596115 -71.468575 -1.353980 0.016615 72.924290 
-0.410550 0.164064 -1.373983 -3.715134 2.289878 -1.412021 -0.000000 -0.000000 0.000000 3.570042 -0.315529 21.663779 0.243787 0.456052 3.301588 0.000000 0.000000 0.000000 0.506377 0.400073 2.159491 1.407468 -0.548321 9.428524 0.560643 0.443885 2.704994 -5.570046 -0.248353 -0.861738 -66.538278 -4.782616 8.184808 0.090765 -35.042211 0.750863 0.274356 0.581393 3.093750 3.899906 -7.419328 0.489944 74.769650 12.084260 9.371217 1.242757 83.443599 1.382692 -0.000000 0.000000 0.000000 7.156417 9.204188 -78.436249 6.036175 -4.052575 68.957274 0.000000 0.000000 0.000000 -5.710027 -8.600267 -71.463077 -1.357626 0.016755 72.925787 
-0.428818 0.167733 -1.410664 -3.699790 2.279065 -1.409191 -0.000000 -0.000000 0.000000 3.577274 -0.285115 21.645813 0.252372 0.457187 3.321234 0.000000 0.000000 0.000000 0.520185 0.401344 2.187856 1.411987 -0.540068 9.393317 0.571209 0.445760 2.725895 -5.605334 -0.373399 -0.842694 -66.483372 -4.848613 7.921436 0.091667 -34.914406 0.747309 0.289382 0.583827 3.122263 3.974289 -7.404298 0.482964 75.034698 12.244083 10.128188 0.872436 80.873977 1.024749 -0.000000 0.000000 0.000000 7.154483 9.204284 -78.434578 6.039483 -4.054251 68.949949 0.000000 0.000000 0.000000 -5.708718 -8.605164 -71.459694 -1.359606 0.014028 72.925281 
-0.446098 0.171159 -1.447004 -3.685541 2.267032 -1.405412 -0.000000 -0.000000 0.000000 3.585239 -0.251755 21.622722 0.261563 0.458744 3.338741 0.000000 0.000000 0.000000 0.534999 0.402680 2.217211 1.416633 -0.530214 9.350097 0.582692 0.447903 2.748251 -5.647496 -0.509205 -0.819986 -66.423799 -4.929602 7.640481 0.092143 -34.741311 0.743115 0.306926 0.586589 3.154519 4.080331 -7.388846 0.476843 75.403339 12.497456 10.937615 0.629789 78.039451 0.796040 -0.000000 0.000000 0.000000 7.154779 9.205869 -78.436411 6.046126 -4.053875 68.946033 0.000000 0.000000 0.000000 -5.705250 -8.607007 -71.448331 -1.360825 0.011524 72.919250 
-0.462280 0.174301 -1.482997 -3.672830 2.257104 -1.402673 -0.000000 -0.000000 0.000000 3.595163 -0.214963 21.598427 0.271622 0.460281 3.356384 0.000000 0.000000 0.000000 0.551343 0.404305 2.248048 1.420928 -0.519473 9.302358 0.594707 0.450244 2.771957 -5.695440 -0.666975 -0.794224 -66.368699 -5.021378 7.366649 0.091843 -34.564555 0.739778 0.326918 0.589191 3.190897 4.211906 -7.386971 0.471079 75.810369 12.874802 11.733685 0.471326 74.926264 0.654365 -0.000000 0.000000 0.000000 7.155829 9.207712 -78.431259 6.053613 -4.052600 68.935003 0.000000 0.000000 0.000000 -5.701224 -8.608419 -71.442402 -1.362847 0.010054 72.913746 
-0.477210 0.177252 -1.518637 -3.661770 2.247705 -1.398298 -0.000000 -0.000000 0.000000 3.605961 -0.176764 21.570636 0.282611 0.462399 3.377096 0.000000 0.000000 0.000000 0.568891 0.406100 2.280411 1.424642 -0.506914 9.249467 0.608141 0.452798 2.795946 -5.742676 -0.829292 -0.765900 -66.310558 -5.116062 7.079157 0.092206 -34.360072 0.737010 0.349186 0.590586 3.227918 4.367505 -7.405131 0.456777 76.244947 13.378861 12.497715 0.366556 71.479361 0.567608 -0.000000 0.000000 0.000000 7.154118 9.210715 -78.426347 6.061520 -4.050347 68.919076 0.000000 0.000000 0.000000 -5.699095 -8.609621 -71.441240 -1.364241 0.007853 72.908540 
-0.491034 0.180040 -1.553959 -3.651674 2.237518 -1.394673 -0.000000 -0.000000 0.000000 3.617005 -0.134125 21.535380 0.294318 0.463964 3.397726 0.000000 0.000000 0.000000 0.587194 0.408403 2.314725 1.429476 -0.494338 9.195176 0.622796 0.455931 2.822709 -5.815010 -1.030672 -0.729147 -66.252692 -5.233667 6.774866 0.092403 -34.146080 0.732872 0.371317 0.592051 3.264441 4.542136 -7.433770 0.439388 76.674811 13.921452 13.296758 0.279632 67.168780 0.491458 -0.000000 0.000000 0.000000 7.153999 9.215255 -78.420214 6.071739 -4.049856 68.907633 0.000000 0.000000 0.000000 -5.697361 -8.610891 -71.437284 -1.366053 0.007336 72.904766 
-0.503620 0.182658 -1.588980 -3.643145 2.227181 -1.388768 -0.000000 -0.000000 0.000000 3.629728 -0.087755 21.494870 0.306568 0.466967 3.418110 0.000000 0.000000 0.000000 0.606208 0.411383 2.347781 1.438232 -0.478969 9.137564 0.637100 0.459349 2.848831 -5.907311 -1.267672 -0.686040 -66.199001 -5.358958 6.463820 0.093147 -33.914911 0.729732 0.393828 0.594311 3.300198 4.704293 -7.474570 0.419710 77.127636 14.425235 14.224293 0.196399 62.977380 0.386878 -0.000000 0.000000 0.000000 7.154568 9.218899 -78.417024 6.078251 -4.049526 68.898072 0.000000 0.000000 0.000000 -5.692274 -8.610487 -71.432683 -1.369695 0.006432 72.898259 
-0.514986 0.185098 -1.623702 -3.634607 2.217312 -1.381590 -0.000000 -0.000000 0.000000 3.637558 -0.037347 21.444684 0.320206 0.470531 3.437693 0.000000 0.000000 0.000000 0.627382 0.414593 2.379051 1.447576 -0.466599 9.081891 0.652812 0.462149 2.875323 -5.998488 -1.514381 -0.638814 -66.134730 -5.471565 6.153668 0.092824 -33.676557 0.727162 0.418141 0.596142 3.335593 4.872052 -7.518203 0.403908 77.440022 14.661308 15.191932 0.135532 59.317641 0.301480 -0.000000 0.000000 0.000000 7.152680 9.225081 -78.415618 6.086506 -4.048205 68.892996 0.000000 0.000000 0.000000 -5.691052 -8.611836 -71.429442 -1.371300 0.004197 72.888874 
-0.525110 0.187425 -1.658165 -3.627214 2.208136 -1.373838 -0.000000 -0.000000 0.000000 3.645208 0.014686 21.381486 0.335431 0.473774 3.457994 0.000000 0.000000 0.000000 0.650956 0.418607 2.410495 1.455737 -0.452269 9.023622 0.671398 0.465604 2.900664 -6.091110 -1.756884 -0.592044 -66.067377 -5.585671 5.829573 0.094043 -33.413541 0.723587 0.444105 0.598406 3.374479 5.160369 -7.541565 0.392310 77.554782 14.966540 16.585838 0.104475 56.311055 0.255320 -0.000000 0.000000 0.000000 7.152674 9.228887 -78.415447 6.096413 -4.044419 68.885135 0.000000 0.000000 0.000000 -5.687556 -8.610041 -71.428067 -1.372355 0.002401 72.880503 
-0.533936 0.189792 -1.692411 -3.623006 2.196716 -1.364093 -0.000000 -0.000000 0.000000 3.653928 0.070159 21.307660 0.348937 0.478256 3.474179 0.000000 0.000000 0.000000 0.676377 0.423097 2.442462 1.463997 -0.437441 8.961690 0.691508 0.470894 2.926323 -6.184127 -2.003175 -0.541972 -65.995664 -5.695294 5.487648 0.093904 -33.160651 0.722124 0.471738 0.599987 3.410234 5.465423 -7.580149 0.374886 77.620326 15.237493 18.007207 0.082156 53.196991 0.216483 -0.000000 0.000000 0.000000 7.151799 9.236345 -78.420701 6.106740 -4.039723 68.883075 0.000000 0.000000 0.000000 -5.682680 -8.606869 -71.426029 -1.377361 -0.000304 72.868826 
-0.541532 0.192245 -1.726474 -3.619951 2.185959 -1.354708 -0.000000 -0.000000 0.000000 3.658667 0.128314 21.218195 0.362546 0.483162 3.488719 0.000000 0.000000 0.000000 0.702445 0.428245 2.472761 1.472340 -0.421881 8.896800 0.712393 0.476251 2.952223 -6.282126 -2.248099 -0.493049 -65.926983 -5.795274 5.186138 0.096027 -32.865824 0.719543 0.503765 0.598605 3.441194 5.798015 -7.626110 0.352916 77.655278 15.542267 19.426233 0.069563 50.127032 0.186445 -0.000000 0.000000 0.000000 7.152363 9.241756 -78.419897 6.117086 -4.033858 68.876721 0.000000 0.000000 0.000000 -5.680202 -8.605764 -71.424790 -1.378359 -0.001794 72.855344 
-0.547894 0.194724 -1.760380 -3.615852 2.174527 -1.342107 -0.000000 -0.000000 0.000000 3.661223 0.185258 21.112441 0.377041 0.487875 3.502432 0.000000 0.000000 0.000000 0.729673 0.433915 2.504015 1.480874 -0.405664 8.828580 0.734452 0.482366 2.977835 -6.378756 -2.488897 -0.442562 -65.856520 -5.912179 4.873240 0.096112 -32.599377 0.718216 0.534039 0.600599 3.475067 6.116750 -7.634997 0.325618 77.688689 15.935192 20.741527 0.068379 47.517221 0.165590 -0.000000 0.000000 0.000000 7.152091 9.249342 -78.424367 6.130180 -4.026519 68.874007 0.000000 0.000000 0.000000 -5.677477 -8.599518 -71.418705 -1.379499 -0.003732 72.836189 
-0.552869 0.197398 -1.794174 -3.613801 2.165257 -1.329350 -0.000000 -0.000000 0.000000 3.662181 0.241045 20.996266 0.391935 0.492586 3.518405 0.000000 0.000000 0.000000 0.757310 0.439594 2.533876 1.487070 -0.388315 8.762728 0.756676 0.488400 3.003950 -6.459639 -2.714069 -0.394633 -65.792381 -6.026776 4.583459 0.097745 -32.314806 0.716000 0.564351 0.603495 3.509321 6.388017 -7.595976 0.302139 77.556351 16.351355 21.675004 0.068396 45.804278 0.138185 -0.000000 0.000000 0.000000 7.150384 9.257914 -78.429843 6.144591 -4.019672 68.868285 0.000000 0.000000 0.000000 -5.678257 -8.595946 -71.406381 -1.381409 -0.006982 72.810836 
-0.556323 0.200321 -1.827951 -3.611530 2.156122 -1.315169 -0.000000 -0.000000 0.000000 3.661240 0.295771 20.865674 0.410949 0.494438 3.533379 0.000000 0.000000 0.000000 0.785078 0.445305 2.561144 1.492002 -0.368130 8.698379 0.778777 0.494853 3.027959 -6.539028 -2.926222 -0.347000 -65.733017 -6.160023 4.331564 0.098757 -32.052405 0.716082 0.593328 0.606133 3.538560 6.607983 -7.537894 0.289472 77.286170 16.749170 22.232912 0.067661 44.942602 0.106152 -0.000000 0.000000 0.000000 7.145645 9.266190 -78.440425 6.161193 -4.009580 68.867311 0.000000 0.000000 0.000000 -5.679691 -8.591696 -71.386874 -1.386068 -0.009449 72.783458 
